<svg width="1024" height="1024" viewBox="0 0 1024 1024" fill="none" xmlns="http://www.w3.org/2000/svg">
<path d="M443.358 79.6151C497.457 69.6326 556.871 72.8172 611.016 85.9949L611.091 86.0135L611.167 86.0311L618.251 87.7078C681.904 103.713 742.139 133.48 791.303 175.989L791.373 176.05L791.443 176.109L795.588 179.638C820.573 201.491 843.497 224.225 861.662 249.771L861.706 249.832L861.749 249.892L864.465 253.667C916.232 326.224 943.219 411.405 943.458 500.36V500.363L943.472 505.74C943.478 534.511 941.421 561.41 935.75 588.807L935.716 588.97L935.685 589.133C935.424 590.484 935.166 591.825 934.898 593.213C933.369 601.005 931.248 608.801 928.708 617.042L928.704 617.055C928.046 619.192 927.465 621.076 926.785 623.288C904.989 693.104 872.122 750.705 821.934 803.651L821.912 803.676L821.888 803.7L819.213 806.537C805.946 820.515 791.572 832.737 775.542 844.682L775.46 844.744L775.378 844.806C774.363 845.575 773.26 846.411 772.202 847.214C734.497 875.736 691.449 897.446 646.094 911.991L646.076 911.996L646.058 912.002C641.889 913.346 637.796 914.736 633.836 916.096C618.22 921.255 601.896 924.284 583.705 927.334L583.696 927.336C581.9 927.638 581.001 927.789 580.094 927.941C579.205 928.091 578.308 928.241 576.544 928.538C527.925 936.325 479.368 935.316 430.915 926.008L430.893 926.004L425.286 924.931C326.636 905.459 235.335 850.111 173.103 771.056L172.954 770.866L172.8 770.679L168.426 765.344C148.687 740.711 132.837 712.486 118.916 682.526L118.901 682.495L118.887 682.465L115.975 676.242C104.598 650.786 96.2578 623.867 89.4214 595.829L89.4156 595.804L89.4088 595.778L88.0464 590.241C81.6456 562.907 80.4188 535.841 80.4742 505.578V505.539C80.4744 504.528 80.4748 503.516 80.4752 502.495C80.4755 501.489 80.4759 500.473 80.4761 499.442C80.5362 469.192 81.8309 441.843 88.1754 414.495L88.1939 414.413L88.2125 414.332C88.4167 413.423 89.053 410.588 89.2964 409.505C91.5634 399.646 94.271 389.836 97.2896 379.838L97.3238 379.723L97.357 379.609C97.654 378.59 97.8026 378.079 97.9527 377.564C98.1003 377.058 98.2493 376.546 98.5416 375.543C122.702 293.372 177.441 214.701 246.758 164.514L246.77 164.506L246.781 164.498C250.555 161.759 254.252 158.976 257.754 156.342C310.453 117.325 372.988 92.6399 438.363 80.5662L438.433 80.5535L438.503 80.5408C439.737 80.3055 440.353 80.1879 440.977 80.0692C441.579 79.9545 442.188 79.8382 443.358 79.6151Z" fill="black" stroke="white" stroke-width="49"/>
<path fill-rule="evenodd" clip-rule="evenodd" d="M480.843 198.407C495.836 185.028 516.731 182.416 535.191 190.83C545.912 197.25 552.898 205.615 556.866 217.485C558.133 223.22 557.946 228.539 557.633 234.392L562.142 234.707C569.065 236.406 571.707 238.921 576.09 244.469V251.187L581.124 251.502C591.331 252.991 598.727 258.731 605.872 265.882C616.481 281.22 618.199 295.007 616.359 313.328C612.467 328.811 603.979 340.884 591.191 350.277C587.032 352.679 584.854 353.93 583.024 354.587L581.124 353.636L576.09 355.315V370.431H576.418C575.8 374.895 574.574 377.052 571.056 380.508C565.709 380.928 565.708 380.928 560.989 380.508L561.303 385.756C560.952 393.03 560.099 396.379 555.955 402.341C551.685 405.545 547.23 408.214 542.532 410.739L545.888 415.777C546.735 423.576 545.552 427.982 540.854 434.252L535.821 437.611C535.317 442.556 535.146 447.151 535.186 452.101C535.175 454.378 535.175 454.379 535.163 456.702C535.144 461.821 535.159 466.939 535.175 472.058C535.168 475.716 535.16 479.373 535.149 483.031C535.129 490.923 535.125 498.815 535.132 506.708C535.144 519.184 535.117 531.66 535.085 544.135C535.021 570.628 534.999 597.122 534.982 623.615C534.963 652.189 534.938 680.765 534.864 709.339C534.833 721.744 534.827 734.149 534.839 746.554C534.842 754.272 534.823 761.991 534.8 769.709C534.793 773.29 534.795 776.872 534.806 780.454C534.82 785.341 534.803 790.228 534.778 795.115C534.796 797.243 534.795 797.244 534.813 799.415C534.713 809.701 532.566 816.668 525.543 824.524C518.829 828.323 513.166 828.624 505.619 827.253C499.029 823.324 497.361 820.799 493.873 813.817V797.022H416.69V770.15H455.282V753.355H416.69V721.445H455.282V704.65H416.69V679.458H493.873C493.881 648.07 493.848 616.682 493.739 585.295C493.689 570.721 493.658 556.146 493.672 541.572C493.683 528.87 493.661 516.167 493.595 503.465C493.561 496.739 493.546 490.014 493.572 483.288C493.596 476.956 493.572 470.626 493.513 464.294C493.499 461.971 493.504 459.648 493.526 457.325C494.117 445.269 494.117 445.268 489.928 434.44C486.945 431.852 486.944 431.852 482.128 429.213C478.946 422.842 480.086 415.703 482.128 409.059L477.514 406.33C471.814 402.477 468.509 398.468 465.349 392.264C464.93 385.756 464.93 385.756 465.349 380.508L461.574 381.033C456.96 380.508 456.96 380.508 453.08 377.359C449.104 369.989 449.675 363.52 450.248 355.315L446.158 355.211C432.989 351.741 424.306 341.991 417.175 330.805C409.277 316.048 407.643 302.917 409.979 286.456C414.118 272.752 421.629 262.537 433.469 254.546C439.307 251.421 443.662 250.81 450.248 251.187L450.668 247.408C452.22 241.71 453.948 239.624 458.638 236.071C464.091 234.812 464.091 234.812 468.705 234.392L468.39 229.458C468.463 217.525 472.582 207.018 480.843 198.407ZM441.859 741.599H493.873V731.522H441.859V741.599ZM492.195 273.02C473.436 270.234 460.802 273.277 447.941 287.506C444.123 295.444 444.043 302.966 445.215 311.649C449.905 318.691 453.336 325.108 461.181 328.693C465.797 330.554 469.731 332.194 473.739 335.162C475.336 339.837 475.625 343.651 475.639 348.578L475.417 351.956C479.955 353.471 483.645 355.204 487.581 357.94C491.505 365.455 491.505 365.455 492.064 374.079L492.195 377.149C497.098 375.96 501.555 375.434 506.615 375.246L513.169 375.259C519.18 375.247 524.809 375.308 530.734 376.322L534.143 377.149L534.392 374.02L534.772 369.906C535.059 365.861 535.059 365.861 535.821 362.033C538.664 356.986 538.664 356.986 542.44 355.033L552.599 350.277V333.482H557.633C567.773 328.981 576.508 321.863 581.124 311.649C582.641 303.429 582.767 295.693 579.688 287.827C574.846 280.135 568.077 275.275 559.311 273.02C545.464 271.945 534.77 271.653 523.341 279.948C519.604 282.845 519.604 282.845 515.686 284.777C511.305 284.497 509.187 283.246 505.592 280.729C501.201 277.479 497.256 275.125 492.195 273.02ZM520.72 212.559C511.939 211.449 505.334 211.344 498.697 217.597C494.484 224.346 494.62 229.971 495.551 237.751C498.083 242.818 500.803 244.815 505.619 247.828C511.961 248.65 518.274 249.051 524.075 246.148C530.268 239.762 532.142 234.889 532.465 225.994C530.597 219.451 526.472 215.989 520.72 212.559Z" fill="#F9FAF9"/>
</svg>
